<?xml version="1.0" encoding="utf-8"?>
<!-- Generator: Adobe Illustrator 19.0.0, SVG Export Plug-In . SVG Version: 6.00 Build 0)  -->
<svg version="1.1" id="Layer_2" xmlns="http://www.w3.org/2000/svg" xmlns:xlink="http://www.w3.org/1999/xlink" x="0px" y="0px"
	 viewBox="0 0 447 297.1" enable-background="new 0 0 447 297.1" xml:space="preserve">
<polygon id="XMLID_13_" points="149.5,97 149.5,145.3 4.7,145.3 4.7,0.5 53,0.5 53,48.8 101.2,48.8 101.2,97 "/>
<polygon id="XMLID_5_" points="149.5,0.5 201.1,72.9 149.5,145.3 294.3,145.3 242.7,72.9 294.3,0.5 "/>
<path id="XMLID_12_" d="M149.5,145.3v58.3l58.3-58.3H149.5z M253.6,145.3L149.5,249.4v40.7h40.7l104.1-104.1v-40.7H253.6z
	 M294.3,290.1v-58.3l-58.3,58.3H294.3z"/>
<path id="XMLID_8_" d="M333.6,145.3h-39.3c0,80,64.8,144.8,144.8,144.8v-39.3C380.8,250.8,333.6,203.5,333.6,145.3z"/>
</svg>
